HIERARCHY
ROOT SpineBase
{
  OFFSET 0.000000 0.000000 0.000000
  CHANNELS 6 Xposition Yposition Zposition Zrotation Xrotation Yrotation
  JOINT SpineMid
  {
    OFFSET 0.000000 37.562225 0.000000
    CHANNELS 3 Zrotation Xrotation Yrotation
    JOINT SpineShoulder
    {
      OFFSET 0.284427 27.468953 -0.671034
      CHANNELS 3 Zrotation Xrotation Yrotation
      JOINT Neck
      {
        OFFSET 0.175980 9.025344 -0.522740
        CHANNELS 3 Zrotation Xrotation Yrotation
        JOINT Head
        {
          OFFSET 1.041310 13.417689 4.200242
          CHANNELS 3 Zrotation Xrotation Yrotation
          End Site
          {
            OFFSET 0 0 0
          }
        }
      }
      JOINT ShoulderLeft
      {
        OFFSET -0.886295 -5.481386 -11.245752
        CHANNELS 3 Zrotation Xrotation Yrotation
        JOINT ElbowLeft
        {
          OFFSET 15.194911 -24.654449 -4.680398
          CHANNELS 3 Zrotation Xrotation Yrotation
          JOINT WristLeft
          {
            OFFSET 7.553754 -22.870165 4.756901
            CHANNELS 3 Zrotation Xrotation Yrotation
            JOINT HandLeft
            {
              OFFSET 0.401159 -7.978028 5.389074
              CHANNELS 3 Zrotation Xrotation Yrotation
              JOINT HandTipLeft
              {
                OFFSET 4.570487 -8.719049 2.334783
                CHANNELS 3 Zrotation Xrotation Yrotation
                End Site
                {
                  OFFSET 0 0 0
                }
              }
              JOINT ThumbLeft
              {
                OFFSET -5.154013 -0.901262 -0.363200
                CHANNELS 3 Zrotation Xrotation Yrotation
                End Site
                {
                  OFFSET 0 0 0
                }
              }
            }
          }
        }
      }
      JOINT ShoulderRight
      {
        OFFSET 14.195033 -9.220641 -13.697976
        CHANNELS 3 Zrotation Xrotation Yrotation
        JOINT ElbowRight
        {
          OFFSET 5.195946 -28.277373 1.231463
          CHANNELS 3 Zrotation Xrotation Yrotation
          JOINT WristRight
          {
            OFFSET 4.667951 -26.977029 7.033856
            CHANNELS 3 Zrotation Xrotation Yrotation
            JOINT HandRight
            {
              OFFSET 0.776370 -5.919601 1.391997
              CHANNELS 3 Zrotation Xrotation Yrotation
              JOINT HandTipRight
              {
                OFFSET 0.218747 -6.120229 1.886875
                CHANNELS 3 Zrotation Xrotation Yrotation
                End Site
                {
                  OFFSET 0 0 0
                }
              }
              JOINT ThumbRight
              {
                OFFSET -1.162191 3.185009 0.475992
                CHANNELS 3 Zrotation Xrotation Yrotation
                End Site
                {
                  OFFSET 0 0 0
                }
              }
            }
          }
        }
      }
    }
  }
  JOINT HipLeft
  {
    OFFSET -5.163745 1.266147 -0.952819
    CHANNELS 3 Zrotation Xrotation Yrotation
    JOINT KneeLeft
    {
      OFFSET -3.994813 -41.413662 4.824066
      CHANNELS 3 Zrotation Xrotation Yrotation
      JOINT AnkleLeft
      {
        OFFSET -7.103755 -36.531061 9.019160
        CHANNELS 3 Zrotation Xrotation Yrotation
        JOINT FootLeft
        {
          OFFSET 12.195933 -6.700223 -5.942285
          CHANNELS 3 Zrotation Xrotation Yrotation
          End Site
          {
            OFFSET 0 0 0
          }
        }
      }
    }
  }
  JOINT HipRight
  {
    OFFSET 7.251545 -0.018692 -6.224250
    CHANNELS 3 Zrotation Xrotation Yrotation
    JOINT KneeRight
    {
      OFFSET -4.597518 -39.185320 6.936617
      CHANNELS 3 Zrotation Xrotation Yrotation
      JOINT AnkleRight
      {
        OFFSET -5.107573 -38.536403 5.823913
        CHANNELS 3 Zrotation Xrotation Yrotation
        JOINT FootRight
        {
          OFFSET -5.979807 -5.361209 2.403153
          CHANNELS 3 Zrotation Xrotation Yrotation
          End Site
          {
            OFFSET 0 0 0
          }
        }
      }
    }
  }
}
MOTION
Frames: 7
Frame Time: 0.033333
-80.879786 86.358663 284.430816 -0.306283 1.234153 21.809018 0.182610 -0.198808 -21.816201 0.022479 -0.085205 -0.009179 -0.837075 -0.375229 0.235251 0.000000 0.000000 0.000000 6.020708 3.809545 1.658736 -9.022059 -5.863785 -3.326107 -6.676230 10.658651 -4.122337 3.597378 0.128209 9.923590 0.000000 0.000000 0.000000 0.000000 0.000000 0.000000 -1.398877 0.135197 0.163898 -1.017770 2.678724 -0.081899 -2.792744 -3.353975 -1.451104 -2.910119 5.976444 -0.688224 0.000000 0.000000 0.000000 0.000000 0.000000 0.000000 0.066259 -2.571978 -21.607998 -1.015364 2.163127 -0.453567 -23.714017 -3.295159 27.920456 0.000000 0.000000 0.000000 0.264021 -2.163924 -21.583733 -0.446091 1.998679 -0.344848 8.906692 5.725094 -4.468399 0.000000 0.000000 0.000000
-80.923006 86.349846 284.538466 -0.244432 1.224176 21.624697 0.192168 -0.220485 -21.630136 0.036588 -0.120186 -0.004589 -0.791704 -0.461529 0.197971 0.000000 0.000000 0.000000 1.447718 1.703571 1.351907 -1.563613 -2.636672 -1.382034 -2.539912 14.300465 -0.737795 -6.541252 -3.451133 3.475861 0.000000 0.000000 0.000000 0.000000 0.000000 0.000000 -1.393820 0.337758 0.190436 -1.051732 2.139944 -0.179675 -3.293700 -4.315267 -1.743623 -3.840894 6.852447 -0.645801 0.000000 0.000000 0.000000 0.000000 0.000000 0.000000 -0.074637 -2.664823 -21.418193 -0.902198 2.469664 -0.477039 -23.015103 -5.717998 19.499807 0.000000 0.000000 0.000000 0.144568 -2.254466 -21.389815 -0.384126 2.426195 -0.391677 5.950177 -1.512638 3.246769 0.000000 0.000000 0.000000
-80.998271 86.305592 284.623382 -0.160198 1.214557 21.705344 0.163261 -0.242588 -21.709857 0.011981 -0.143521 -0.003163 -0.093007 -0.906034 0.011539 0.000000 0.000000 0.000000 -7.870164 -2.238671 0.476163 14.090663 3.238701 0.956046 0.502801 23.261362 2.657674 -13.419181 -9.480112 -3.219230 0.000000 0.000000 0.000000 0.000000 0.000000 0.000000 -1.177799 0.630456 0.244623 -1.247982 1.418741 -0.323883 -3.262175 -5.326412 -1.875646 -4.186651 8.390266 -0.322980 0.000000 0.000000 0.000000 0.000000 0.000000 0.000000 -0.317825 -2.762279 -21.499869 -0.624836 2.865523 -0.486723 -22.200690 -4.866226 20.628208 0.000000 0.000000 0.000000 0.034424 -2.493077 -21.427957 -0.477681 3.067292 -0.488790 6.797614 3.232483 -2.718741 0.000000 0.000000 0.000000
-81.076787 86.298849 284.728977 -0.058544 1.202734 21.209524 0.177626 -0.215101 -21.212618 0.032867 -0.155112 0.001967 -0.217678 -0.911356 0.003430 0.000000 0.000000 0.000000 -22.116149 -8.630167 -2.769874 36.485034 13.929907 1.447547 4.357601 34.362457 4.471892 -22.328203 -26.348352 -16.211111 0.000000 0.000000 0.000000 0.000000 0.000000 0.000000 -1.058889 0.814659 0.283834 -1.264232 0.529912 -0.452330 -4.204516 -6.837468 -2.379980 -1.067937 10.673321 0.847656 0.000000 0.000000 0.000000 0.000000 0.000000 0.000000 -0.482763 -2.855838 -20.997745 -0.471439 3.158345 -0.499823 -15.910956 -4.026158 12.587453 0.000000 0.000000 0.000000 -0.047192 -2.618059 -20.905317 -0.515794 3.439994 -0.543511 7.131885 3.608270 -3.268024 0.000000 0.000000 0.000000
-81.176373 86.312613 284.859548 0.132266 1.110099 20.339065 0.217760 -0.245870 -20.336479 0.066397 -0.205912 0.014694 -0.488516 -0.749199 -0.016872 0.000000 0.000000 0.000000 -39.120696 -14.892001 -8.759508 63.329068 25.318382 -3.298952 8.606634 46.038250 2.224305 -30.755404 -44.841305 -25.266391 0.000000 0.000000 0.000000 0.000000 0.000000 0.000000 -1.249147 1.115015 0.295541 -1.017942 -0.293618 -0.525127 -5.662452 -8.381477 -3.058385 3.020344 12.421000 1.886161 0.000000 0.000000 0.000000 0.000000 0.000000 0.000000 -0.752566 -2.842703 -20.129601 -0.082503 3.587632 -0.499032 -14.432226 -2.167280 15.064822 0.000000 0.000000 0.000000 -0.159886 -2.536687 -20.026040 -0.478929 3.680341 -0.572252 7.812932 4.589803 -4.438251 0.000000 0.000000 0.000000
-81.274905 86.368792 285.004990 0.408615 0.955352 19.299560 0.278872 -0.337931 -19.286611 0.087140 -0.274644 0.032637 -0.297464 -1.350279 -0.146476 0.000000 0.000000 0.000000 -55.110347 -18.434458 -14.970128 91.433771 31.997691 -12.341325 11.892397 51.703431 -3.116237 -41.281151 -62.602132 -34.213354 0.000000 0.000000 0.000000 0.000000 0.000000 0.000000 -1.509666 1.424314 0.278001 -0.810942 -1.232501 -0.613187 -8.117175 -9.233689 -3.908594 6.692627 15.166879 2.723599 0.000000 0.000000 0.000000 0.000000 0.000000 0.000000 -1.158093 -2.698352 -19.107172 0.536348 4.046237 -0.474531 -16.608806 -5.205196 10.654857 0.000000 0.000000 0.000000 -0.363496 -2.296246 -18.996739 -0.342249 3.770016 -0.567585 7.199497 1.039399 -0.092654 0.000000 0.000000 0.000000
-81.467657 86.415420 285.162593 0.738838 0.669497 18.149980 0.333584 -0.494445 -18.121329 0.089689 -0.357547 0.054222 0.199458 -1.603928 -0.398576 0.000000 0.000000 0.000000 -65.291249 -19.436282 -18.510490 112.879737 33.516398 -19.868070 14.096891 54.226177 -9.813689 -56.696897 -75.347745 -47.093716 0.000000 0.000000 0.000000 0.000000 0.000000 0.000000 -1.304029 1.982792 0.278456 -0.893073 -2.350478 -0.692377 -10.441782 -9.085467 -4.453565 9.518515 16.872808 3.207722 0.000000 0.000000 0.000000 0.000000 0.000000 0.000000 -1.270596 -2.470975 -17.931734 0.684013 4.415453 -0.503880 -18.778134 -8.861028 3.793096 0.000000 0.000000 0.000000 -0.389136 -1.907034 -17.828504 -0.365344 3.852188 -0.591152 9.363477 8.395989 -9.334999 0.000000 0.000000 0.000000
